{
	"asset":{
		"version":"2.0",
		"generator":"Created using the official Cinema 4D glTF Exporter 1.000x284978"
	},
	"scenes":[{
		"nodes":[0]
	}],
	"accessors":[{
		"bufferView":0,
		"type":"SCALAR",
		"count":44880,
		"componentType":5123,
		"byteOffset":0,
		"min":[0],
		"max":[24239]
	},
	{
		"bufferView":1,
		"type":"VEC3",
		"count":24240,
		"componentType":5126,
		"byteOffset":0,
		"min":[-12.202544212341309,
		-12.202544212341309,
		-12.202544212341309],
		"max":[12.202544212341309,
		12.202544212341309,
		12.202544212341309]
	},
	{
		"bufferView":1,
		"type":"VEC3",
		"count":24240,
		"componentType":5126,
		"byteOffset":12,
		"min":[-0.999925434589386,
		-0.999925434589386,
		-0.999925434589386],
		"max":[0.999925434589386,
		0.999925434589386,
		0.999925434589386]
	},
	{
		"bufferView":1,
		"type":"VEC2",
		"count":24240,
		"componentType":5126,
		"byteOffset":24,
		"min":[0.0,
		0.0],
		"max":[1.0,
		0.8659999370574951]
	}],
	"nodes":[{
		"name":"Bevel Controller",
		"children":[1]
	},
	{
		"name":"Null.1",
		"children":[2]
	},
	{
		"name":"Null",
		"children":[3]
	},
	{
		"name":"Sphere",
		"mesh":0,
		"translation":[0.0,
		143.40762329101563,
		0.0],
		"scale":[1.0,
		1.0,
		1.0],
		"rotation":[0.0,
		0.0,
		0.0,
		-1.0]
	}],
	"meshes":[{
		"name":"Sphere",
		"primitives":[{
			"attributes":{
				"POSITION":1,
				"NORMAL":2,
				"TEXCOORD_0":3
			},
			"indices":0,
			"material":0
		}]
	}],
	"bufferViews":[{
		"buffer":0,
		"byteOffset":0,
		"byteLength":89760,
		"target":34963
	},
	{
		"buffer":0,
		"byteOffset":89760,
		"byteLength":775680,
		"target":34962,
		"byteStride":32
	}],
	"buffers":[{
		"uri":"data:application/octet-stream;base64,",
		"byteLength":865440
	}],
	"materials":[{
		"pbrMetallicRoughness":{
			"baseColorFactor":[0.0,
			0.0,
			0.0,
			1.0],
			"metallicFactor":0.8,
			"roughnessFactor":0.11
		},
		"emissiveFactor":[0.0,
		0.0,
		0.0],
		"alphaMode":"OPAQUE",
		"doubleSided":false,
		"name":"Steel"
	}]
}